<svg xmlns="http://www.w3.org/2000/svg" xmlns:xlink="http://www.w3.org/1999/xlink" width="500" zoomAndPan="magnify" viewBox="0 0 375 374.999991" height="500" preserveAspectRatio="xMidYMid meet" version="1.0"><defs><g/><clipPath id="f6499a3bf3"><path d="M 59.882812 128.4375 L 133 128.4375 L 133 175 L 59.882812 175 Z M 59.882812 128.4375 " clip-rule="nonzero"/></clipPath><clipPath id="9b5428de2d"><path d="M 116 227 L 129 227 L 129 238.6875 L 116 238.6875 Z M 116 227 " clip-rule="nonzero"/></clipPath><clipPath id="5bb7e7db3f"><path d="M 129 211 L 149.132812 211 L 149.132812 231 L 129 231 Z M 129 211 " clip-rule="nonzero"/></clipPath></defs><rect x="-37.5" width="450" fill="#ffffff" y="-37.499999" height="449.999989" fill-opacity="1"/><rect x="-37.5" width="450" fill="#ffffff" y="-37.499999" height="449.999989" fill-opacity="1"/><path fill="#00afef" d="M 61.4375 194.316406 L 90.339844 202.050781 L 125.265625 186.484375 C 129.90625 184.414062 132.71875 180.078125 132.71875 175.003906 L 132.71875 174.980469 L 118.453125 162.710938 L 67.089844 185.226562 C 63.585938 186.777344 61.4375 190.054688 61.4375 193.875 Z M 61.4375 194.316406 " fill-opacity="1" fill-rule="evenodd"/><g clip-path="url(#f6499a3bf3)"><path fill="#3e4095" d="M 132.71875 174.953125 L 132.71875 162.070312 C 132.71875 154.535156 126.820312 148.351562 119.292969 147.933594 C 113.589844 147.636719 108.136719 146.183594 102.925781 142.980469 C 94.066406 137.5625 91.695312 128.472656 79.40625 128.472656 C 68.621094 128.472656 59.882812 137.191406 59.882812 147.957031 C 59.882812 158.722656 68.621094 167.441406 79.40625 167.441406 C 87.425781 167.441406 89.796875 162.464844 101.519531 162.589844 C 112.652344 162.738281 122.945312 167.417969 132.71875 174.953125 " fill-opacity="1" fill-rule="evenodd"/></g><path fill="#4760aa" d="M 90.339844 202.050781 L 61.4375 194.316406 L 61.4375 214.933594 Z M 90.339844 202.050781 " fill-opacity="1" fill-rule="evenodd"/><path fill="#00dff7" d="M 90.339844 202.050781 L 61.4375 214.933594 L 61.4375 215.601562 C 61.4375 219.910156 64.226562 223.558594 68.398438 224.691406 L 112.40625 236.734375 C 112.28125 236.636719 112.132812 236.539062 112.011719 236.441406 C 111.9375 236.367188 111.863281 236.316406 111.789062 236.242188 L 111.714844 236.167969 C 111.492188 235.972656 111.292969 235.75 111.097656 235.503906 L 111.023438 235.429688 L 110.898438 235.28125 L 110.851562 235.207031 L 110.800781 235.132812 L 110.75 235.0625 L 110.652344 234.886719 L 110.601562 234.8125 L 110.578125 234.765625 L 110.554688 234.714844 L 110.554688 234.691406 L 110.457031 234.542969 L 110.40625 234.46875 L 110.40625 234.445312 L 110.355469 234.347656 C 110.308594 234.246094 110.257812 234.175781 110.234375 234.074219 L 110.207031 234 L 110.207031 233.976562 L 110.160156 233.878906 L 110.132812 233.804688 L 110.132812 233.78125 L 110.085938 233.679688 L 110.058594 233.605469 L 110.035156 233.535156 L 110.035156 233.507812 L 110.011719 233.410156 L 109.984375 233.359375 L 109.960938 233.3125 L 109.9375 233.214844 L 109.914062 233.140625 L 109.914062 233.113281 L 109.886719 233.039062 L 109.886719 233.015625 L 109.863281 232.917969 L 109.863281 232.867188 L 109.839844 232.820312 L 109.8125 232.71875 L 109.789062 232.621094 L 109.765625 232.546875 L 109.765625 232.523438 L 109.738281 232.425781 L 109.738281 232.351562 L 109.714844 232.203125 L 109.691406 232.03125 L 109.691406 230.601562 L 109.714844 230.453125 L 109.714844 230.429688 L 109.738281 230.304688 L 109.738281 230.234375 L 109.765625 230.109375 L 109.765625 230.085938 L 109.789062 229.960938 L 109.789062 229.9375 L 109.8125 229.789062 L 109.839844 229.691406 L 109.839844 229.664062 L 109.863281 229.59375 L 109.863281 229.566406 L 109.886719 229.46875 L 109.886719 229.445312 L 109.914062 229.320312 L 109.960938 229.171875 L 109.984375 229.074219 L 110.011719 229 L 110.011719 228.976562 L 110.058594 228.878906 L 110.058594 228.828125 L 110.109375 228.707031 L 110.109375 228.679688 L 110.160156 228.582031 L 110.183594 228.53125 L 110.183594 228.507812 L 110.234375 228.410156 L 110.257812 228.386719 L 110.28125 228.335938 L 110.332031 228.210938 L 110.382812 228.089844 L 110.429688 228.015625 L 110.480469 227.917969 L 110.480469 227.890625 L 110.503906 227.84375 L 110.554688 227.746094 L 110.578125 227.71875 L 110.652344 227.597656 L 110.726562 227.5 L 110.75 227.472656 L 110.800781 227.398438 L 110.898438 227.300781 L 110.972656 227.203125 L 110.972656 227.179688 L 111.046875 227.078125 L 111.046875 227.054688 L 111.121094 226.957031 L 111.144531 226.90625 L 111.195312 226.859375 L 111.246094 226.785156 L 111.269531 226.757812 L 111.34375 226.660156 L 111.441406 226.5625 L 111.46875 226.539062 L 111.542969 226.464844 L 111.589844 226.414062 L 111.640625 226.363281 L 111.714844 226.292969 L 111.835938 226.191406 L 111.9375 226.117188 L 111.960938 226.09375 L 112.035156 226.042969 L 112.058594 226.019531 L 112.132812 225.972656 L 112.230469 225.898438 L 112.332031 225.824219 L 112.40625 225.75 L 112.429688 225.722656 L 112.503906 225.675781 L 112.527344 225.652344 L 112.601562 225.601562 L 112.628906 225.578125 L 112.824219 225.429688 L 112.847656 225.402344 L 112.921875 225.355469 L 112.949219 225.355469 L 113.023438 225.304688 L 113.046875 225.28125 L 113.144531 225.230469 L 113.269531 225.15625 L 113.367188 225.109375 L 113.464844 225.058594 L 113.492188 225.035156 L 113.589844 224.984375 L 113.6875 224.9375 L 113.8125 224.886719 L 113.835938 224.886719 L 113.933594 224.835938 L 113.960938 224.835938 L 114.035156 224.8125 L 114.058594 224.8125 L 114.15625 224.789062 L 114.183594 224.789062 C 114.429688 224.691406 114.699219 224.617188 114.972656 224.566406 C 118.207031 223.433594 120.5 220.378906 120.5 216.757812 C 120.5 213.160156 118.179688 210.082031 114.972656 208.949219 C 114.625 208.824219 114.257812 208.726562 113.886719 208.652344 Z M 90.339844 202.050781 " fill-opacity="1" fill-rule="evenodd"/><g clip-path="url(#9b5428de2d)"><path fill="#3e4095" d="M 128.226562 232.867188 C 128.226562 236.070312 125.632812 238.65625 122.425781 238.65625 C 119.21875 238.65625 116.625 236.070312 116.625 232.867188 C 116.625 229.664062 119.21875 227.078125 122.425781 227.078125 C 125.632812 227.078125 128.226562 229.664062 128.226562 232.867188 " fill-opacity="1" fill-rule="evenodd"/></g><g clip-path="url(#5bb7e7db3f)"><path fill="#00ccff" d="M 149.132812 221.242188 C 149.132812 226.539062 144.835938 230.847656 139.507812 230.847656 C 134.199219 230.847656 129.878906 226.5625 129.878906 221.242188 C 129.878906 215.945312 134.175781 211.632812 139.507812 211.632812 C 144.8125 211.660156 149.132812 215.945312 149.132812 221.242188 " fill-opacity="1" fill-rule="evenodd"/></g><g fill="#000000" fill-opacity="1"><g transform="translate(158.454166, 191.940856)"><g><path d="M 1.34375 0 L 1.34375 -17.15625 L 5.46875 -17.15625 L 6.234375 -14.046875 L 6.265625 -14.046875 C 6.734375 -15.179688 7.5 -16.066406 8.5625 -16.703125 C 9.625 -17.335938 10.8125 -17.65625 12.125 -17.65625 C 14.832031 -17.65625 16.566406 -16.40625 17.328125 -13.90625 L 17.359375 -13.90625 C 18.003906 -15.175781 18.875 -16.117188 19.96875 -16.734375 C 21.070312 -17.347656 22.269531 -17.65625 23.5625 -17.65625 C 25.257812 -17.65625 26.582031 -17.113281 27.53125 -16.03125 C 28.476562 -14.945312 28.953125 -13.4375 28.953125 -11.5 L 28.953125 0 L 23.828125 0 L 23.828125 -10.359375 C 23.828125 -11.296875 23.582031 -12.023438 23.09375 -12.546875 C 22.601562 -13.078125 21.929688 -13.34375 21.078125 -13.34375 C 20.003906 -13.34375 19.171875 -12.984375 18.578125 -12.265625 C 17.992188 -11.546875 17.703125 -10.597656 17.703125 -9.421875 L 17.703125 0 L 12.609375 0 L 12.609375 -10.359375 C 12.609375 -11.296875 12.359375 -12.023438 11.859375 -12.546875 C 11.367188 -13.078125 10.6875 -13.34375 9.8125 -13.34375 C 8.769531 -13.34375 7.953125 -12.984375 7.359375 -12.265625 C 6.765625 -11.546875 6.46875 -10.597656 6.46875 -9.421875 L 6.46875 0 Z M 1.34375 0 "/></g></g></g><g fill="#000000" fill-opacity="1"><g transform="translate(188.647653, 191.940856)"><g><path d="M 6.640625 0.5 C 4.847656 0.5 3.375 0.0546875 2.21875 -0.828125 C 1.070312 -1.722656 0.5 -2.910156 0.5 -4.390625 C 0.5 -5.867188 1.132812 -7.109375 2.40625 -8.109375 C 3.6875 -9.117188 5.609375 -9.753906 8.171875 -10.015625 L 11.5 -10.421875 C 11.894531 -10.460938 12.21875 -10.585938 12.46875 -10.796875 C 12.71875 -11.015625 12.84375 -11.300781 12.84375 -11.65625 C 12.84375 -12.394531 12.550781 -12.988281 11.96875 -13.4375 C 11.382812 -13.882812 10.632812 -14.109375 9.71875 -14.109375 C 8.6875 -14.109375 7.835938 -13.789062 7.171875 -13.15625 C 6.503906 -12.519531 6.125 -11.773438 6.03125 -10.921875 L 1.03125 -11.703125 C 1.144531 -12.878906 1.566406 -13.929688 2.296875 -14.859375 C 3.023438 -15.785156 4.015625 -16.507812 5.265625 -17.03125 C 6.515625 -17.5625 7.953125 -17.828125 9.578125 -17.828125 C 12.109375 -17.828125 14.117188 -17.207031 15.609375 -15.96875 C 17.109375 -14.726562 17.859375 -13.035156 17.859375 -10.890625 L 17.859375 -4.25 C 17.859375 -3.425781 18.148438 -3.015625 18.734375 -3.015625 C 19.222656 -3.015625 19.671875 -3.269531 20.078125 -3.78125 L 21.28125 -1.078125 C 20.769531 -0.554688 20.101562 -0.164062 19.28125 0.09375 C 18.46875 0.363281 17.671875 0.5 16.890625 0.5 C 15.859375 0.5 14.972656 0.222656 14.234375 -0.328125 C 13.503906 -0.890625 13.082031 -1.5625 12.96875 -2.34375 L 12.90625 -2.953125 L 12.875 -2.953125 C 12.3125 -1.921875 11.492188 -1.085938 10.421875 -0.453125 C 9.347656 0.179688 8.085938 0.5 6.640625 0.5 Z M 8.578125 -3.015625 C 9.785156 -3.015625 10.78125 -3.390625 11.5625 -4.140625 C 12.34375 -4.890625 12.734375 -5.84375 12.734375 -7 L 12.734375 -7.703125 L 9.453125 -7.34375 C 8.023438 -7.1875 7.03125 -6.894531 6.46875 -6.46875 C 5.90625 -6.039062 5.625 -5.550781 5.625 -5 C 5.625 -4.414062 5.90625 -3.9375 6.46875 -3.5625 C 7.03125 -3.195312 7.734375 -3.015625 8.578125 -3.015625 Z M 8.578125 -3.015625 "/></g></g></g><g fill="#000000" fill-opacity="1"><g transform="translate(209.927182, 191.940856)"><g><path d="M 9.015625 0.609375 C 7.472656 0.609375 6.082031 0.378906 4.84375 -0.078125 C 3.601562 -0.535156 2.609375 -1.207031 1.859375 -2.09375 C 1.109375 -2.976562 0.691406 -4.054688 0.609375 -5.328125 L 5.0625 -5.828125 C 5.144531 -4.910156 5.582031 -4.175781 6.375 -3.625 C 7.175781 -3.082031 8.15625 -2.8125 9.3125 -2.8125 C 10.28125 -2.8125 11.097656 -3 11.765625 -3.375 C 12.429688 -3.757812 12.765625 -4.242188 12.765625 -4.828125 C 12.765625 -5.335938 12.488281 -5.753906 11.9375 -6.078125 C 11.394531 -6.398438 10.519531 -6.664062 9.3125 -6.875 L 6.765625 -7.265625 C 4.867188 -7.578125 3.492188 -8.113281 2.640625 -8.875 C 1.796875 -9.632812 1.375 -10.71875 1.375 -12.125 C 1.375 -13.875 2.054688 -15.25 3.421875 -16.25 C 4.785156 -17.257812 6.5625 -17.765625 8.75 -17.765625 C 10.113281 -17.765625 11.335938 -17.550781 12.421875 -17.125 C 13.503906 -16.695312 14.382812 -16.101562 15.0625 -15.34375 C 15.75 -14.582031 16.15625 -13.703125 16.28125 -12.703125 L 11.9375 -12.0625 C 11.863281 -12.800781 11.515625 -13.390625 10.890625 -13.828125 C 10.265625 -14.265625 9.492188 -14.484375 8.578125 -14.484375 C 7.773438 -14.484375 7.101562 -14.296875 6.5625 -13.921875 C 6.03125 -13.554688 5.753906 -13.117188 5.734375 -12.609375 C 5.734375 -12.179688 5.960938 -11.820312 6.421875 -11.53125 C 6.878906 -11.238281 7.617188 -11.003906 8.640625 -10.828125 L 11.1875 -10.390625 C 13.351562 -10.003906 14.921875 -9.40625 15.890625 -8.59375 C 16.867188 -7.78125 17.359375 -6.660156 17.359375 -5.234375 C 17.359375 -4.046875 17.003906 -3.015625 16.296875 -2.140625 C 15.597656 -1.273438 14.625 -0.597656 13.375 -0.109375 C 12.125 0.367188 10.671875 0.609375 9.015625 0.609375 Z M 9.015625 0.609375 "/></g></g></g><g fill="#000000" fill-opacity="1"><g transform="translate(227.85561, 191.940856)"><g><path d="M 8.109375 7.703125 C 6.296875 7.703125 4.628906 7.414062 3.109375 6.84375 C 1.597656 6.28125 0.414062 5.519531 -0.4375 4.5625 L 1.4375 0.84375 C 2.15625 1.625 3.066406 2.253906 4.171875 2.734375 C 5.273438 3.210938 6.441406 3.453125 7.671875 3.453125 C 9.328125 3.453125 10.640625 3.019531 11.609375 2.15625 C 12.585938 1.300781 13.078125 0.132812 13.078125 -1.34375 L 13.078125 -2.8125 L 13.03125 -2.8125 C 12.5 -1.71875 11.738281 -0.863281 10.75 -0.25 C 9.769531 0.363281 8.6875 0.671875 7.5 0.671875 C 5.601562 0.671875 4.097656 0.0507812 2.984375 -1.1875 C 1.867188 -2.425781 1.3125 -4.0625 1.3125 -6.09375 L 1.3125 -17.15625 L 6.40625 -17.15625 L 6.40625 -7 C 6.40625 -5.976562 6.671875 -5.132812 7.203125 -4.46875 C 7.742188 -3.8125 8.492188 -3.484375 9.453125 -3.484375 C 10.453125 -3.484375 11.296875 -3.832031 11.984375 -4.53125 C 12.679688 -5.238281 13.03125 -6.148438 13.03125 -7.265625 L 13.03125 -17.15625 L 18.171875 -17.15625 L 18.171875 -1.171875 C 18.171875 0.640625 17.75 2.207031 16.90625 3.53125 C 16.070312 4.863281 14.90625 5.890625 13.40625 6.609375 C 11.90625 7.335938 10.140625 7.703125 8.109375 7.703125 Z M 8.109375 7.703125 "/></g></g></g><g fill="#000000" fill-opacity="1"><g transform="translate(247.359056, 191.940856)"><g><path d="M 1.34375 -7.34375 L 1.34375 -10.828125 L 12.734375 -10.828125 L 12.734375 -7.34375 Z M 1.34375 -7.34375 "/></g></g></g><g fill="#000000" fill-opacity="1"><g transform="translate(261.433715, 191.940856)"><g><path d="M 12.5625 -17.65625 C 14.332031 -17.65625 15.71875 -17.140625 16.71875 -16.109375 C 17.726562 -15.085938 18.234375 -13.660156 18.234375 -11.828125 L 18.234375 0 L 13.109375 0 L 13.109375 -10.25 C 13.109375 -11.238281 12.847656 -12.007812 12.328125 -12.5625 C 11.816406 -13.125 11.113281 -13.40625 10.21875 -13.40625 C 9.125 -13.40625 8.222656 -13.046875 7.515625 -12.328125 C 6.816406 -11.617188 6.46875 -10.671875 6.46875 -9.484375 L 6.46875 0 L 1.34375 0 L 1.34375 -17.15625 L 5.671875 -17.15625 L 6.4375 -14.046875 L 6.46875 -14.046875 C 7.09375 -15.203125 7.925781 -16.09375 8.96875 -16.71875 C 10.007812 -17.34375 11.207031 -17.65625 12.5625 -17.65625 Z M 12.5625 -17.65625 "/></g></g></g><g fill="#000000" fill-opacity="1"><g transform="translate(280.903656, 191.940856)"><g><path d="M 11.03125 0.671875 C 9.019531 0.671875 7.242188 0.273438 5.703125 -0.515625 C 4.160156 -1.304688 2.953125 -2.40625 2.078125 -3.8125 C 1.203125 -5.226562 0.765625 -6.851562 0.765625 -8.6875 C 0.765625 -10.488281 1.148438 -12.078125 1.921875 -13.453125 C 2.691406 -14.828125 3.773438 -15.898438 5.171875 -16.671875 C 6.566406 -17.441406 8.179688 -17.828125 10.015625 -17.828125 C 11.804688 -17.828125 13.363281 -17.457031 14.6875 -16.71875 C 16.019531 -15.988281 17.0625 -14.96875 17.8125 -13.65625 C 18.5625 -12.351562 18.9375 -10.835938 18.9375 -9.109375 C 18.9375 -8.773438 18.910156 -8.4375 18.859375 -8.09375 C 18.816406 -7.75 18.765625 -7.441406 18.703125 -7.171875 L 6.03125 -7.171875 C 6.1875 -5.941406 6.738281 -4.953125 7.6875 -4.203125 C 8.632812 -3.453125 9.816406 -3.078125 11.234375 -3.078125 C 12.304688 -3.078125 13.3125 -3.296875 14.25 -3.734375 C 15.1875 -4.171875 15.898438 -4.734375 16.390625 -5.421875 L 19.3125 -3.1875 C 18.613281 -2.039062 17.519531 -1.109375 16.03125 -0.390625 C 14.550781 0.316406 12.882812 0.671875 11.03125 0.671875 Z M 6 -10.125 L 13.734375 -10.125 C 13.648438 -11.394531 13.269531 -12.382812 12.59375 -13.09375 C 11.925781 -13.8125 11.066406 -14.171875 10.015625 -14.171875 C 8.941406 -14.171875 8.039062 -13.796875 7.3125 -13.046875 C 6.59375 -12.304688 6.15625 -11.332031 6 -10.125 Z M 6 -10.125 "/></g></g></g><g fill="#000000" fill-opacity="1"><g transform="translate(300.84275, 191.940856)"><g><path d="M 10.0625 0.671875 C 8 0.671875 6.367188 0.101562 5.171875 -1.03125 C 3.984375 -2.175781 3.390625 -3.722656 3.390625 -5.671875 L 3.390625 -13.265625 L 0.171875 -13.265625 L 0.171875 -17.15625 L 3.390625 -17.15625 L 3.390625 -21.890625 L 8.515625 -22.984375 L 8.515625 -17.15625 L 15.3125 -17.15625 L 15.3125 -13.265625 L 8.515625 -13.265625 L 8.515625 -6.46875 C 8.515625 -5.53125 8.769531 -4.789062 9.28125 -4.25 C 9.800781 -3.71875 10.4375 -3.453125 11.1875 -3.453125 C 12.707031 -3.453125 13.875 -4.191406 14.6875 -5.671875 L 16.21875 -2.453125 C 15.613281 -1.484375 14.75 -0.71875 13.625 -0.15625 C 12.5 0.394531 11.3125 0.671875 10.0625 0.671875 Z M 10.0625 0.671875 "/></g></g></g></svg>